<?xml version="1.0" encoding="UTF-8" standalone="no"?>
<!-- Created with Inkscape (http://www.inkscape.org/) -->
<svg
   xmlns:dc="http://purl.org/dc/elements/1.1/"
   xmlns:cc="http://web.resource.org/cc/"
   xmlns:rdf="http://www.w3.org/1999/02/22-rdf-syntax-ns#"
   xmlns:svg="http://www.w3.org/2000/svg"
   xmlns="http://www.w3.org/2000/svg"
   xmlns:sodipodi="http://inkscape.sourceforge.net/DTD/sodipodi-0.dtd"
   xmlns:inkscape="http://www.inkscape.org/namespaces/inkscape"
   width="480.09"
   height="751.35999"
   id="svg2225"
   sodipodi:version="0.32"
   inkscape:version="0.43"
   sodipodi:docbase="C:\Documents and Settings\Alex Jones\Desktop"
   sodipodi:docname="Circuit_de_la_sarthe_rev12_enlabels.svg"
   version="1.0">
  <defs
     id="defs2227" />
  <sodipodi:namedview
     id="base"
     pagecolor="#ffffff"
     bordercolor="#666666"
     borderopacity="1.0"
     gridtolerance="10000"
     guidetolerance="10"
     objecttolerance="10"
     inkscape:pageopacity="0.0"
     inkscape:pageshadow="2"
     inkscape:zoom="1.0767142"
     inkscape:cx="240.045"
     inkscape:cy="375.67999"
     inkscape:document-units="px"
     inkscape:current-layer="layer1"
     inkscape:window-width="1280"
     inkscape:window-height="975"
     inkscape:window-x="-4"
     inkscape:window-y="-4"
     width="480.09px"
     height="751.36px"
     showguides="true"
     inkscape:guide-bbox="true">
    <sodipodi:guide
       orientation="horizontal"
       position="780.37002"
       id="guide1580" />
  </sodipodi:namedview>
  <metadata
     id="metadata2230">
    <rdf:RDF>
      <cc:Work
         rdf:about="">
        <dc:format>image/svg+xml</dc:format>
        <dc:type
           rdf:resource="http://purl.org/dc/dcmitype/StillImage" />
      </cc:Work>
    </rdf:RDF>
  </metadata>
  <g
     inkscape:label="Layer 1"
     inkscape:groupmode="layer"
     id="layer1">
    <path
       style="fill:none;fill-opacity:0.75;fill-rule:evenodd;stroke:#b3b3b3;stroke-width:5;stroke-linecap:butt;stroke-linejoin:miter;stroke-miterlimit:4;stroke-dasharray:none;stroke-opacity:1"
       d="M 246.34909,73.694688 C 246.34909,73.694688 253.27084,78.176713 254.17282,81.499652 C 253.21165,84.708653 250.48142,88.428906 247.86037,90.739255 L 198.42386,121.61937 C 247.86037,90.739255 197.94271,120.80169 196.51381,122.81247 C 195.08491,124.82325 194.19283,125.89485 192.70824,129.6625 C 191.38668,133.01639 191.7949,133.08752 193.7738,136.96921 C 195.7527,140.8509 197.31298,143.09618 200.62383,145.18925 C 206.5872,148.80361 213.73047,140.95344 217.48065,137.2016 C 228.82126,125.5946 252.37966,98.913445 252.37966,98.913445 C 252.37966,98.913445 255.88079,97.391215 258.46858,97.543435 C 261.05638,97.695655 261.39888,97.809825 261.96971,100.5879 C 262.54055,103.36597 261.51304,107.59016 261.51304,107.59016 C 261.51304,107.59016 261.1713,107.93298 260.53615,108.57288 C 253.91463,115.24393 215.40441,154.20255 199.76965,173.61931 C 196.88185,177.20566 193.0045,180.49817 193.62158,181.72277 C 194.43514,183.33729 194.98974,183.85819 196.55858,187.73061 C 197.4117,189.83638 199.01244,192.0957 199.1016,194.05284 C 199.52584,203.21253 184.18375,232.26082 184.18375,232.26082 C 184.18375,232.26082 179.85156,239.91394 175.81148,240.78531 C 171.7714,241.65668 172.3899,239.08941 168.02345,235.74631 C 165.9345,234.14694 163.39453,229.70553 161.35029,229.52081 C 155.46825,228.9893 157.88722,228.98803 154.8047,229.97748 C 151.72218,230.96693 152.93997,230.4722 149.62912,232.56527 C 146.31827,234.65833 143.95881,235.03889 141.5613,238.34974 C 139.16379,241.66059 141.75158,243.29699 140.03907,245.80867 C 138.32656,248.32035 134.71126,248.39646 134.71126,248.39646"
       id="path3284"
       sodipodi:nodetypes="ccccssscccsscssssscsssssssc" />
    <path
       style="fill:none;fill-opacity:0.75;fill-rule:evenodd;stroke:#000000;stroke-width:5;stroke-linecap:butt;stroke-linejoin:miter;stroke-miterlimit:4;stroke-dasharray:none;stroke-opacity:1"
       d="M 233.02823,68.499879 C 238.27426,65.334319 249.37181,79.380635 253.70719,76.391385 C 258.04257,73.402135 257.3026,75.085545 259.27214,69.457745 C 260.16173,66.915815 259.91219,59.021005 260.73753,56.152515 C 261.67061,52.909575 261.58533,53.880215 261.58533,53.880215 C 266.79675,46.005555 286.60554,39.005305 295.95514,38.063735 C 303.0789,37.346325 302.96512,46.684065 306.83584,51.577715 C 310.53202,61.393395 313.88046,69.747045 317.38082,81.272355 C 324.38545,104.3359 331.99386,128.89708 331.99386,128.89708 L 337.13701,157.26121 L 358.9849,295.37744 C 358.9849,295.37744 359.6685,298.37177 359.32412,300.40881 C 358.97974,302.44585 358.82131,301.61856 357.60736,303.5256 C 355.25105,307.22721 351.93604,313.5559 352.81825,318.76385 C 353.84481,324.82399 358.61594,326.36364 362.73711,328.82652 C 363.98145,329.57015 365.86552,329.86756 366.17139,331.45976 C 366.51112,333.22822 366.17139,331.45976 366.89554,334.73084 L 400.84659,488.0922 C 400.84659,488.0922 398.94349,489.34675 403.69656,494.88145 C 408.44963,500.41616 416.74379,503.13317 416.80654,509.72231 C 416.88431,517.88749 408.89512,521.0596 409.40954,528.15161 C 409.92282,535.22798 409.40954,528.15161 410.33518,537.41893 L 419.78127,606.52509 L 424.96345,671.18379 L 425.03913,692.86811 C 425.03913,692.86811 424.68357,695.91781 423.85774,697.87931 C 423.07052,699.74909 423.62776,700.69886 418.10412,700.24897 C 406.78586,699.3271 380.67943,690.09399 380.67943,690.09399 C 380.67943,690.09399 335.30063,670.87096 293.45594,642.41101 C 258.51633,618.64744 224.97667,587.02521 214.85886,577.23589 C 212.85929,575.30124 212.64212,575.7832 211.77451,574.21932 C 210.9069,572.65544 211.31784,573.30598 210.93175,570.06702 L 209.37941,554.1264 L 176.29358,556.29874 C 176.29358,556.29874 174.93643,540.22639 173.10574,525.40831 C 171.27505,510.59022 167.90527,497.17862 167.90527,497.17862 C 167.90527,497.17862 161.01837,479.22713 151.1149,466.72989 C 146.68689,461.14216 138.30782,460.68414 134.33374,457.38553 C 129.41958,453.30662 126.98993,450.15926 128.33949,441.44152 C 129.68906,432.72377 140.74944,422.51454 140.74944,422.51454 C 140.74944,422.51454 148.75576,418.01879 153.21734,412.59546 C 157.67892,407.17213 157.43879,409.28844 155.54344,395.2253 C 154.57508,388.0402 146.52929,383.14329 140.14728,376.27879 C 133.49341,369.1219 132.13225,372.0122 129.96582,364.79077 C 128.10348,358.58296 131.15342,356.88253 134.13378,353.27825 C 137.94577,348.66825 141.40864,348.82326 141.61837,344.22993 C 141.83749,339.43093 141.61837,344.22993 141.70805,336.51782 L 142.23038,276.89274 C 142.21677,274.2586 142.53007,265.85476 140.73488,262.96353 C 138.93969,260.0723 136.06146,260.88127 135.81074,258.32556 C 135.56002,255.76985 139.17152,255.18222 138.20977,252.58846 C 137.24802,249.99469 133.56806,249.45556 131.35485,246.42826 C 129.14164,243.40096 130.57471,240.63146 130.57471,240.63146 C 130.57471,240.63146 131.68819,209.21941 135.78344,182.74269 C 137.75275,170.01066 140.52105,161.90442 142.89469,152.25673 C 150.2044,122.5463 160.63064,122.14626 160.63064,122.14626 C 169.29061,115.69973 179.45445,111.36171 187.83459,104.66015 C 191.12271,101.98539 190.96933,101.99048 195.51722,99.198511 C 195.91044,98.957111 199.95366,100.90622 200.37649,100.59649 C 206.74667,95.930243 201.98931,93.476707 207.63549,89.935977 C 213.28167,86.395247 216.22477,94.723092 221.01054,89.339298 C 223.29694,86.767197 223.27431,80.96791 224.69104,76.16204 C 226.23973,70.908503 230.28848,70.153097 233.02823,68.499879 z "
       id="path2294"
       sodipodi:nodetypes="cssscscscccssssscczssccccsscssscccscssscssssssccsssscssccssssss" />
    <path
       d="M 403.45428,395.09586 L 412.39993,394.13689 L 409.57137,411.38468 L 403.45428,395.09586 z "
       style="fill:#ff0000;fill-opacity:1;fill-rule:evenodd;stroke:none;stroke-width:1px;stroke-linecap:butt;stroke-linejoin:miter;stroke-opacity:1"
       id="path6224" />
    <path
       d="M 98.586093,217.91468 L 90.014279,215.18187 L 99.562983,200.54258 L 98.586093,217.91468 z "
       style="fill:#ff0000;fill-opacity:1;fill-rule:evenodd;stroke:none;stroke-width:1px;stroke-linecap:butt;stroke-linejoin:miter;stroke-opacity:1"
       id="path7195" />
    <text
       x="404.89606"
       y="719.2511"
       style="font-size:12px;font-style:normal;font-weight:normal;fill:#000000;fill-opacity:1;stroke:none;stroke-width:1px;stroke-linecap:butt;stroke-linejoin:miter;stroke-opacity:1;font-family:Arial"
       id="text9334"
       xml:space="preserve"><tspan
         style="font-family:Arial"
         x="404.89606"
         y="719.2511"
         id="tspan9336">Mulsanne</tspan></text>
    <text
       x="218.50485"
       y="552.00568"
       style="font-size:12px;font-style:normal;font-weight:normal;fill:#000000;fill-opacity:1;stroke:none;stroke-width:1px;stroke-linecap:butt;stroke-linejoin:miter;stroke-opacity:1;font-family:Arial Narrow"
       id="text10557"
       xml:space="preserve"><tspan
         style="font-family:Arial"
         x="218.50485"
         y="552.00568"
         id="tspan10559">Indianapolis</tspan></text>
    <text
       x="107.47858"
       y="556.64667"
       style="font-size:12px;font-style:normal;font-weight:normal;fill:#000000;fill-opacity:1;stroke:none;stroke-width:1px;stroke-linecap:butt;stroke-linejoin:miter;stroke-opacity:1;font-family:Arial"
       id="text10571"
       xml:space="preserve"><tspan
         style="font-family:Arial"
         x="107.47858"
         y="556.64667"
         id="tspan10573">Arnage</tspan></text>
    <text
       id="text10575"
       y="455.65704"
       x="26.221603"
       style="font-size:12px;font-style:normal;font-weight:normal;fill:#000000;fill-opacity:1;stroke:none;stroke-width:1px;stroke-linecap:butt;stroke-linejoin:miter;stroke-opacity:1;font-family:Bitstream Vera Sans"
       xml:space="preserve"><tspan
         y="455.65704"
         x="26.221603"
         id="tspan10577"
         sodipodi:role="line">Porsche Curves</tspan></text>
    <text
       id="text10713"
       y="128.45682"
       x="51.310764"
       style="font-size:12px;font-style:normal;font-weight:normal;fill:#000000;fill-opacity:1;stroke:none;stroke-width:1px;stroke-linecap:butt;stroke-linejoin:miter;stroke-opacity:1;font-family:Bitstream Vera Sans"
       xml:space="preserve"><tspan
         y="128.45682"
         x="51.310764"
         id="tspan10715"
         sodipodi:role="line">Dunlop Curve</tspan></text>
    <g
       id="g10734"
       transform="translate(-109.82,5.391794)">
      <text
         id="text10740"
         xml:space="preserve"
         style="font-size:12px;font-style:normal;font-weight:normal;fill:#000000;fill-opacity:1;stroke:none;stroke-width:1px;stroke-linecap:butt;stroke-linejoin:miter;stroke-opacity:1;font-family:Arial"
         y="412.47336"
         x="386.4278"><tspan
           id="tspan10742"
           y="412.47336"
           x="386.4278"
           style="font-family:Arial">Mulsanne Straight</tspan></text>
      <text
         id="text6157"
         xml:space="preserve"
         style="font-size:12px;font-style:normal;font-weight:normal;fill:#000000;fill-opacity:1;stroke:none;stroke-width:1px;stroke-linecap:butt;stroke-linejoin:miter;stroke-opacity:1;font-family:Arial"
         y="196.10994"
         x="462.93393"><tspan
           id="tspan6159"
           y="196.10994"
           x="462.93393"
           style="font-family:Arial">Mulsanne Straight</tspan></text>
    </g>
    <text
       xml:space="preserve"
       style="font-size:12px;font-style:normal;font-weight:normal;fill:#000000;fill-opacity:1;stroke:none;stroke-width:1px;stroke-linecap:butt;stroke-linejoin:miter;stroke-opacity:1;font-family:Bitstream Vera Sans"
       x="349.00647"
       y="36.313946"
       id="text10746"><tspan
         sodipodi:role="line"
         x="349.00647"
         y="36.313946"
         id="tspan10750"
         style="text-align:center;text-anchor:middle">Tertre Rouge</tspan></text>
    <text
       id="text2297"
       y="266.33832"
       x="47.152542"
       style="font-size:12px;font-style:normal;font-weight:normal;fill:#000000;fill-opacity:1;stroke:none;stroke-width:1px;stroke-linecap:butt;stroke-linejoin:miter;stroke-opacity:1;font-family:Bitstream Vera Sans"
       xml:space="preserve"><tspan
         y="266.33832"
         x="47.152542"
         id="tspan2299"
         sodipodi:role="line">Ford Chicanes</tspan></text>
    <path
       style="fill:none;fill-opacity:0.75;fill-rule:evenodd;stroke:#000000;stroke-width:2.122;stroke-linecap:butt;stroke-linejoin:miter;stroke-opacity:1;stroke-miterlimit:4;stroke-dasharray:none"
       d="M 143.63189,282.73471 C 143.63189,282.73471 150.41991,246.24118 150.36302,244.81847 C 150.25044,242.00324 147.40585,243.19841 147.36665,240.56073 C 147.17132,227.41829 144.61738,225.3625 143.66144,224.27557 C 140.04374,220.16218 138.84926,226.04773 138.31154,220.3441 C 137.55386,212.30729 142.45426,155.88928 159.08296,131.93693 C 162.9088,126.42611 176.96707,117.54684 185.72619,112.22471 C 193.33134,107.60374 199.76533,100.50693 199.76533,100.50693"
       id="path1578"
       sodipodi:nodetypes="cssssssc" />
    <g
       transform="matrix(0.4629199,0.6713519,-0.6713519,0.4629199,-4.5305219,-215.53231)"
       id="g12355">
      <rect
         width="3.6360872"
         height="3.794178"
         x="503.13138"
         y="-225.66817"
         transform="matrix(0.7650015,0.6440285,-0.6440285,0.7650015,0,0)"
         style="fill:#000000;fill-opacity:1;fill-rule:nonzero;stroke:none;stroke-width:1.29999995;stroke-miterlimit:4;stroke-dasharray:none;stroke-opacity:1"
         id="rect9376" />
      <rect
         width="3.6360872"
         height="3.794178"
         x="503.13843"
         y="-210.80884"
         transform="matrix(0.7650015,0.6440285,-0.6440285,0.7650015,0,0)"
         style="fill:#000000;fill-opacity:1;fill-rule:nonzero;stroke:none;stroke-width:1.29999995;stroke-miterlimit:4;stroke-dasharray:none;stroke-opacity:1"
         id="rect10347" />
      <rect
         width="3.6360872"
         height="3.794178"
         x="503.22794"
         y="-233.16934"
         transform="matrix(0.7650015,0.6440285,-0.6440285,0.7650015,0,0)"
         style="fill:#000000;fill-opacity:1;fill-rule:nonzero;stroke:none;stroke-width:1.29999995;stroke-miterlimit:4;stroke-dasharray:none;stroke-opacity:1"
         id="rect10349" />
      <rect
         width="3.6360872"
         height="3.794178"
         x="503.10162"
         y="-221.97508"
         transform="matrix(0.7650015,0.6440285,-0.6440285,0.7650015,0,0)"
         style="fill:#ffffff;fill-opacity:1;fill-rule:nonzero;stroke:none;stroke-width:1.29999995;stroke-miterlimit:4;stroke-dasharray:none;stroke-opacity:1"
         id="rect10351" />
      <rect
         width="3.6360872"
         height="3.794178"
         x="503.14481"
         y="-229.39552"
         transform="matrix(0.7650015,0.6440285,-0.6440285,0.7650015,0,0)"
         style="fill:#ffffff;fill-opacity:1;fill-rule:nonzero;stroke:none;stroke-width:1.29999995;stroke-miterlimit:4;stroke-dasharray:none;stroke-opacity:1"
         id="rect12293" />
      <rect
         width="3.6360872"
         height="3.794178"
         x="503.1427"
         y="-214.46121"
         transform="matrix(0.7650015,0.6440285,-0.6440285,0.7650015,0,0)"
         style="fill:#ffffff;fill-opacity:1;fill-rule:nonzero;stroke:none;stroke-width:1.29999995;stroke-miterlimit:4;stroke-dasharray:none;stroke-opacity:1"
         id="rect12295" />
      <rect
         width="3.6360872"
         height="3.794178"
         x="503.14166"
         y="-206.99403"
         transform="matrix(0.7650015,0.6440285,-0.6440285,0.7650015,0,0)"
         style="fill:#ffffff;fill-opacity:1;fill-rule:nonzero;stroke:none;stroke-width:1.29999995;stroke-miterlimit:4;stroke-dasharray:none;stroke-opacity:1"
         id="rect12297" />
      <rect
         width="3.6360872"
         height="3.794178"
         x="506.87115"
         y="-233.22285"
         transform="matrix(0.7650015,0.6440285,-0.6440285,0.7650015,0,0)"
         style="fill:#ffffff;fill-opacity:1;fill-rule:nonzero;stroke:none;stroke-width:1.29999995;stroke-miterlimit:4;stroke-dasharray:none;stroke-opacity:1"
         id="rect12299" />
      <rect
         width="3.6360872"
         height="3.794178"
         x="503.1145"
         y="-203.19873"
         transform="matrix(0.7650015,0.6440285,-0.6440285,0.7650015,0,0)"
         style="fill:#000000;fill-opacity:1;fill-rule:nonzero;stroke:none;stroke-width:1.29999995;stroke-miterlimit:4;stroke-dasharray:none;stroke-opacity:1"
         id="rect12301" />
      <rect
         width="3.6360872"
         height="3.794178"
         x="503.12387"
         y="-218.21779"
         transform="matrix(0.7650015,0.6440285,-0.6440285,0.7650015,0,0)"
         style="fill:#000000;fill-opacity:1;fill-rule:nonzero;stroke:none;stroke-width:1.29999995;stroke-miterlimit:4;stroke-dasharray:none;stroke-opacity:1"
         id="rect12303" />
      <rect
         width="3.6360872"
         height="3.794178"
         x="506.6814"
         y="-221.93484"
         transform="matrix(0.7650015,0.6440285,-0.6440285,0.7650015,0,0)"
         style="fill:#000000;fill-opacity:1;fill-rule:nonzero;stroke:none;stroke-width:1.29999995;stroke-miterlimit:4;stroke-dasharray:none;stroke-opacity:1"
         id="rect12321" />
      <rect
         width="3.6360872"
         height="3.794178"
         x="506.68845"
         y="-207.07552"
         transform="matrix(0.7650015,0.6440285,-0.6440285,0.7650015,0,0)"
         style="fill:#000000;fill-opacity:1;fill-rule:nonzero;stroke:none;stroke-width:1.29999995;stroke-miterlimit:4;stroke-dasharray:none;stroke-opacity:1"
         id="rect12323" />
      <rect
         width="3.6360872"
         height="3.794178"
         x="506.77795"
         y="-229.43602"
         transform="matrix(0.7650015,0.6440285,-0.6440285,0.7650015,0,0)"
         style="fill:#000000;fill-opacity:1;fill-rule:nonzero;stroke:none;stroke-width:1.29999995;stroke-miterlimit:4;stroke-dasharray:none;stroke-opacity:1"
         id="rect12325" />
      <rect
         width="3.6360872"
         height="3.794178"
         x="506.65164"
         y="-218.24176"
         transform="matrix(0.7650015,0.6440285,-0.6440285,0.7650015,0,0)"
         style="fill:#ffffff;fill-opacity:1;fill-rule:nonzero;stroke:none;stroke-width:1.29999995;stroke-miterlimit:4;stroke-dasharray:none;stroke-opacity:1"
         id="rect12327" />
      <rect
         width="3.6360872"
         height="3.794178"
         x="506.69482"
         y="-225.6622"
         transform="matrix(0.7650015,0.6440285,-0.6440285,0.7650015,0,0)"
         style="fill:#ffffff;fill-opacity:1;fill-rule:nonzero;stroke:none;stroke-width:1.29999995;stroke-miterlimit:4;stroke-dasharray:none;stroke-opacity:1"
         id="rect12329" />
      <rect
         width="3.6360872"
         height="3.794178"
         x="506.69272"
         y="-210.72789"
         transform="matrix(0.7650015,0.6440285,-0.6440285,0.7650015,0,0)"
         style="fill:#ffffff;fill-opacity:1;fill-rule:nonzero;stroke:none;stroke-width:1.29999995;stroke-miterlimit:4;stroke-dasharray:none;stroke-opacity:1"
         id="rect12331" />
      <rect
         width="3.6360872"
         height="3.794178"
         x="506.69168"
         y="-203.26071"
         transform="matrix(0.7650015,0.6440285,-0.6440285,0.7650015,0,0)"
         style="fill:#ffffff;fill-opacity:1;fill-rule:nonzero;stroke:none;stroke-width:1.29999995;stroke-miterlimit:4;stroke-dasharray:none;stroke-opacity:1"
         id="rect12333" />
      <rect
         width="3.6360872"
         height="3.794178"
         x="506.67389"
         y="-214.48447"
         transform="matrix(0.7650015,0.6440285,-0.6440285,0.7650015,0,0)"
         style="fill:#000000;fill-opacity:1;fill-rule:nonzero;stroke:none;stroke-width:1.29999995;stroke-miterlimit:4;stroke-dasharray:none;stroke-opacity:1"
         id="rect12335" />
      <rect
         width="3.6360872"
         height="3.794178"
         x="510.23587"
         y="-225.71014"
         transform="matrix(0.7650015,0.6440285,-0.6440285,0.7650015,0,0)"
         style="fill:#000000;fill-opacity:1;fill-rule:nonzero;stroke:none;stroke-width:1.29999995;stroke-miterlimit:4;stroke-dasharray:none;stroke-opacity:1"
         id="rect12337" />
      <rect
         width="3.6360872"
         height="3.794178"
         x="510.24292"
         y="-210.85081"
         transform="matrix(0.7650015,0.6440285,-0.6440285,0.7650015,0,0)"
         style="fill:#000000;fill-opacity:1;fill-rule:nonzero;stroke:none;stroke-width:1.29999995;stroke-miterlimit:4;stroke-dasharray:none;stroke-opacity:1"
         id="rect12339" />
      <rect
         width="3.6360872"
         height="3.794178"
         x="510.33243"
         y="-233.21132"
         transform="matrix(0.7650015,0.6440285,-0.6440285,0.7650015,0,0)"
         style="fill:#000000;fill-opacity:1;fill-rule:nonzero;stroke:none;stroke-width:1.29999995;stroke-miterlimit:4;stroke-dasharray:none;stroke-opacity:1"
         id="rect12341" />
      <rect
         width="3.6360872"
         height="3.794178"
         x="510.20612"
         y="-222.01706"
         transform="matrix(0.7650015,0.6440285,-0.6440285,0.7650015,0,0)"
         style="fill:#ffffff;fill-opacity:1;fill-rule:nonzero;stroke:none;stroke-width:1.29999995;stroke-miterlimit:4;stroke-dasharray:none;stroke-opacity:1"
         id="rect12343" />
      <rect
         width="3.6360872"
         height="3.794178"
         x="510.2493"
         y="-229.4375"
         transform="matrix(0.7650015,0.6440285,-0.6440285,0.7650015,0,0)"
         style="fill:#ffffff;fill-opacity:1;fill-rule:nonzero;stroke:none;stroke-width:1.29999995;stroke-miterlimit:4;stroke-dasharray:none;stroke-opacity:1"
         id="rect12345" />
      <rect
         width="3.6360872"
         height="3.794178"
         x="510.24719"
         y="-214.50319"
         transform="matrix(0.7650015,0.6440285,-0.6440285,0.7650015,0,0)"
         style="fill:#ffffff;fill-opacity:1;fill-rule:nonzero;stroke:none;stroke-width:1.29999995;stroke-miterlimit:4;stroke-dasharray:none;stroke-opacity:1"
         id="rect12347" />
      <rect
         width="3.6360872"
         height="3.794178"
         x="510.24615"
         y="-207.03601"
         transform="matrix(0.7650015,0.6440285,-0.6440285,0.7650015,0,0)"
         style="fill:#ffffff;fill-opacity:1;fill-rule:nonzero;stroke:none;stroke-width:1.29999995;stroke-miterlimit:4;stroke-dasharray:none;stroke-opacity:1"
         id="rect12349" />
      <rect
         width="3.6360872"
         height="3.794178"
         x="510.22836"
         y="-218.25977"
         transform="matrix(0.7650015,0.6440285,-0.6440285,0.7650015,0,0)"
         style="fill:#000000;fill-opacity:1;fill-rule:nonzero;stroke:none;stroke-width:1.29999995;stroke-miterlimit:4;stroke-dasharray:none;stroke-opacity:1"
         id="rect12351" />
      <rect
         width="3.6360872"
         height="3.794178"
         x="510.32791"
         y="-203.24594"
         transform="matrix(0.7650015,0.6440285,-0.6440285,0.7650015,0,0)"
         style="fill:#000000;fill-opacity:1;fill-rule:nonzero;stroke:none;stroke-width:1.29999995;stroke-miterlimit:4;stroke-dasharray:none;stroke-opacity:1"
         id="rect12353" />
    </g>
    <path
       style="fill:none;fill-opacity:0.75;fill-rule:evenodd;stroke:#000000;stroke-width:2.122;stroke-linecap:butt;stroke-linejoin:miter;stroke-opacity:1;stroke-miterlimit:4;stroke-dasharray:none"
       d="M 146.97979,160.38817 C 145.58564,156.0253 146.11592,147.28293 145.43043,144.33738"
       id="path3526"
       sodipodi:nodetypes="cc" />
    <text
       id="text6147"
       y="77.58551"
       x="101.23621"
       style="font-size:12px;font-style:normal;font-weight:normal;fill:#000000;fill-opacity:1;stroke:none;stroke-width:1px;stroke-linecap:butt;stroke-linejoin:miter;stroke-opacity:1;font-family:Bitstream Vera Sans"
       xml:space="preserve"><tspan
         y="77.58551"
         x="101.23621"
         id="tspan6149"
         sodipodi:role="line">Dunlop Chicane</tspan></text>
    <text
       id="text6151"
       y="50.659721"
       x="207.6259"
       style="font-size:12px;font-style:normal;font-weight:normal;fill:#000000;fill-opacity:1;stroke:none;stroke-width:1px;stroke-linecap:butt;stroke-linejoin:miter;stroke-opacity:1;font-family:Bitstream Vera Sans"
       xml:space="preserve"><tspan
         y="50.659721"
         x="207.6259"
         id="tspan6153"
         sodipodi:role="line">Esses</tspan></text>
  </g>
</svg>
