<?xml version="1.0" encoding="UTF-8" standalone="no"?>
<svg xmlns:svg="http://www.w3.org/2000/svg" xmlns="http://www.w3.org/2000/svg"
     version="1.1" width="1024px" height="650px" viewBox="-10 -10 1024 650">
    <defs />
    <path id="circuit" style="fill:#000000; stroke:none;" d="M 921.5,628.1 C 908.5,626.2 892.5,615.4 887.4,604 884.4,599.4 884.4,598 884.4,590.8 885.4,577 891.5,566.9 931.5,515.2 939.5,504.3 943.5,492.5 941.5,483.2 939.5,473.6 937.5,469.5 931.5,466.5 924.5,463 921.5,463.5 908.5,471.6 885.4,485.1 859.4,490.3 832.1,486.7 816.1,484.6 807.1,482 795,476.1 783.3,470.3 773.5,462.5 759,447.7 749.9,438.3 748.4,437.2 742.6,435.2 734.6,432.6 729.5,432.5 721.7,434.9 713.3,437.6 707.2,442.1 704.3,447.8 702.2,452.2 702,454.2 701.5,471.6 701.2,484.6 700.6,491.3 699.7,492.9 698,495.9 692.7,499.2 689.5,499.2 684.7,499.2 688,501.6 555.8,399.1 423.7,296.8 396.3,275.7 384.7,267.1 379.2,263 366.6,253.6 356.7,246.3 346.8,238.9 337.2,232.1 335.3,231.3 332.2,230 331.6,230.1 326.8,232.4 324,233.8 317.4,238.3 312.2,242.2 299.5,251.7 294,254.1 285,254.1 277,254.1 274.5,253 252.6,240.3 237.6,231.5 234,228.7 217.6,213 204.6,200.6 185.5,185.4 168.9,174.3 156.9,166.2 154,164.7 139.3,158.4 123.5,151.7 103.8,141.4 84.42,130 59.6,115.2 58.2,113.5 59.4,100.6 61,84.9 60.7,80.78 57.7,76.32 52.39,68.28 46.49,67.06 20.17,68.53 L 6.055,69.32 2.952,66.24 C -0.9503,62.37 -0.9503,59.83 2.752,48.95 14.86,13.26 19.17,7.99 36.28,7.99 44.09,7.99 45.19,8.267 52.79,12.05 62.1,16.71 75.71,28.81 81.92,37.96 86.92,45.31 95.23,62.09 97.83,69.87 98.93,73.29 101.1,78.35 102.6,81.11 105,85.48 106.3,86.55 112.4,89.48 118.3,92.27 158.4,107.9 212.6,128.5 218.7,130.8 230.4,135.3 238.6,138.5 246.9,141.7 256.3,145.3 259.6,146.5 262.9,147.8 269.7,150.4 274.6,152.3 279.6,154.2 305.1,164 331.2,174 429.3,211.6 470,227.2 477.3,230 484.5,232.8 501.2,239.3 525.3,248.6 531.6,251 541.2,254.7 546.4,256.7 551.6,258.7 559.4,261.6 563.6,263.2 L 571.2,266 575.6,262.9 C 578,261.2 583,257.2 586.9,254.1 594.6,247.7 601.1,244.1 604.6,244.1 607.9,244.1 616.5,248.4 619,251.2 620.1,252.5 622.9,256.8 625.1,260.6 630.5,269.9 632.1,271.3 651.4,285.1 688.4,311.3 689.5,312 706.4,318.2 720.6,323.4 752.1,335.3 786.1,348.3 793.2,351 804.3,355.2 810.6,357.6 816.9,359.9 830,364.9 839.6,368.6 849.4,372.3 861.4,377 867.4,379.1 913.5,396.7 934.5,404.9 941.5,408.4 955.5,415.6 966.5,428.6 974.5,445.3 981.5,459.9 981.5,458.2 980.5,523.7 980.5,560 980.5,585 979.5,588.6 977.5,602.3 966.5,617 953.5,623.5 943.5,628.8 934.5,630.1 921.5,628.1 z M 944.5,619.2 C 953.5,616 959.5,611.2 965.5,603.4 973.5,591 973.5,592.2 973.5,522.7 L 973.5,461.6 970.5,454.3 C 967.5,445.4 958.5,431.4 951.5,425.2 949.5,422.7 943.5,418.7 939.5,416.4 932.5,412.6 881.4,392.6 780.6,354.5 774.3,352.2 761.8,347.5 753,344.1 744.2,340.8 727.3,334.4 715.5,330 689,320.1 682.6,316.7 660.5,301.1 626.5,277.2 624.8,275.6 617.5,262.9 613.6,256.1 612.5,254.9 608.7,253.5 603,251.3 601.1,252.2 588.8,262.4 574,274.6 572.5,275 558.8,269.7 553.9,267.8 528.6,258.1 502.6,248.2 476.7,238.3 454.4,229.6 453.1,229 451.8,228.5 435.9,222.4 417.8,215.5 399.6,208.6 381.3,201.6 377.2,200 373.1,198.4 364.3,195 357.7,192.5 351.1,190 339.4,185.5 331.7,182.5 306.6,172.8 287.2,165.4 252.1,152 233.1,144.7 213.8,137.3 209.1,135.5 204.4,133.6 181.7,124.9 158.6,116.1 135.6,107.2 113.9,98.63 110.4,96.98 98.63,91.4 96.03,87.87 88.82,68.19 82.02,49.39 71.21,34.01 58.4,24.77 48.09,17.38 44.89,15.9 37.88,15.26 33.28,14.84 31.18,15.17 27.67,16.87 22.27,19.49 20.97,21.67 13.36,42.33 6.355,61.06 6.455,61.61 15.46,61.32 46.39,60.33 48.19,60.4 52.89,62.87 58.7,65.88 63.6,70.52 66.01,75.23 68.21,79.51 68.61,90.95 66.91,100.3 65.31,109 66.31,110.1 86.92,122.3 114.6,138.7 119.7,141.5 132.5,147 154.9,156.7 171.1,165.6 184.7,175.8 203.4,189.8 211.4,196.6 225.3,209.8 238.6,222.5 243.3,226 261.3,236.4 273.1,243.3 281.6,247.1 284.9,247.1 290.1,247.1 297.4,243.6 306.7,236.4 324.6,222.9 332.2,220.4 340.7,225.3 345.4,228 388,259.8 416.1,281.3 441,300.5 453,308.6 459.6,310.5 463.5,311.7 472.8,317.9 496.9,335.4 514.6,348.2 530.5,359.9 532.3,361.5 534.2,363 544.4,369.4 555,375.7 565.6,382 574.6,387.6 574.9,388.2 575.3,388.7 578.1,390.5 581.2,392 589.2,395.9 627.3,419.8 630.7,423 634.3,426.3 638.4,434.4 638.4,438.1 638.4,445.6 639.2,446.8 650.3,454.9 664.3,465.1 664.2,465 666.7,462.7 667.9,461.6 677.7,453.4 689.5,445.1 713.9,428 718.4,425.9 732,425.9 745.5,425.8 749.4,427.9 766,444.1 787.4,464.8 800.2,472.5 821.6,477.3 835.2,480.3 860.4,480.6 871.4,477.9 883.4,474.8 895.5,470.2 902.5,466.2 905.5,464 910.5,461.1 913.5,459.7 927.5,453.1 941.5,459.3 947.5,474.7 949.5,479.6 949.5,482.1 949.5,489.6 949.5,501.6 945.5,509.6 933.5,525.7 899.5,570.8 895.5,575.9 893.5,586.7 891.5,593.7 891.5,594.3 893.5,598.5 899.5,615.6 924.5,625.8 944.5,619.2 z M 692.5,489.6 C 693.3,488.6 693.8,482.4 694,469.9 694.1,459.8 694.7,450.1 695.3,448.2 696,446.3 696.3,444.6 696.1,444.4 695.6,443.9 671,462.1 668.8,464.6 668.2,465.2 666.1,466.1 665.3,466.7 664.5,467.3 661.1,465.4 660.8,465.4 659.3,465.4 639.4,450.7 637.6,448.4 637,447.5 636.4,445.3 636.4,443.5 636.4,437 634.2,430.3 631,427.3 629.3,425.7 617.1,417.7 603.9,409.6 590.7,401.5 574.9,391.8 568.9,388.1 562.9,384.3 552.7,378.3 546.4,374.6 540.1,370.9 533.7,366.8 532.3,365.6 525.9,359.9 479,327 473.3,324.2 471.1,323.1 471.1,323.2 473.8,325.5 475.4,327 495.5,342.6 518.3,360.3 541.2,378 561.9,394.2 564.4,396.3 566.9,398.5 571,401.7 573.6,403.4 577.2,405.9 611.2,431.9 637.1,452.1 691.6,494.5 689.5,493.2 692.5,489.6 z" />
	<g id="flag" transform="translate(520,400) rotate(-50)" style="fill:#000000; stroke:none;">
		<rect x="-1" y="-1" width="82" height="18" style="fill:#ffffff;" />
		<rect x="0"  y="0"  width="8" height="8" />
		<rect x="16" y="0"  width="8" height="8" />
		<rect x="32" y="0"  width="8" height="8" />
		<rect x="48" y="0"  width="8" height="8" />
		<rect x="8"  y="8" width="8" height="8" />
		<rect x="24" y="8" width="8" height="8" />
		<rect x="40" y="8" width="8" height="8" />
		<rect x="56" y="8" width="8" height="8" />
	</g>
	<polygon id="arrow" transform="translate(490,410) rotate(40)" points="0,0 40,-10 40,10" style="fill:#ff0000; stroke:none;" />
	<g style="fill: #000000; stroke: none; font-size: 20px; font-weight: bold; text-anchor: middle; font-family:Arial;">
		<text x="330" y="260">1</text>
		<text x="285" y="240">2</text>
		<text x="50" y="120">3</text>
		<text x="50" y="90">4</text>
		<text x="22" y="60">5</text>
		<text x="33" y="35">6</text>
		<text x="110" y="80">7</text>
		<text x="570" y="260">8</text>
		<text x="610" y="240">9</text>
		<text x="970" y="420">10</text>
		<text x="920" y="600">11</text>
		<text x="920" y="500">12</text>
		<text x="830" y="510">13</text>
		<text x="730" y="460">14</text>
		<text x="720" y="500">15</text>
	</g>
</svg>
